<?xml version="1.0" encoding="UTF-8"?>
<svg id="Livello_2" data-name="Livello 2" xmlns="http://www.w3.org/2000/svg" viewBox="0 0 508.88 563.48">
  <defs>
    <style>
      .cls-1 {
        fill: none;
      }

      .cls-1, .cls-2, .cls-3 {
        stroke-width: 0px;
      }

      .cls-2 {
        fill: #1a7fc3;
      }

      .cls-3 {
        fill: #fff;
      }
    </style>
  </defs>
  <g id="Livello_1-2" data-name="Livello 1">
    <g>
      <path class="cls-2" d="M164.71,184.1h.07s-.01-.05-.02-.07h-.06s.01.05.01.07Z"/>
      <path class="cls-3" d="M17.71,109.5c4.58,19.45,15.58,34.56,33.01,44.66,6.46,3.74,13.47,5.74,21.69,5.6-5.24,3.32-10.2,2.98-15.22,1.9-12.37-2.71-22.12-9.73-30.04-19.19-11.64-13.93-17.39-30.05-15.85-48.36.67-8.03,4.13-14.75,10.92-19.44-6.88,10.97-7.3,22.9-4.5,34.83Z"/>
      <path class="cls-3" d="M495.76,201.38c4.5,9.67,6.33,20.1,8.1,30.5,4.64,27.46,4.68,55.17,4.66,82.9-.03,59.9.08,119.8.12,179.69,0,21.91-.04,43.81-.04,65.72,0,.96.18,1.91.26,2.86h-8.71c0-16.56.05-33.14.04-49.7-.07-59.23-.11-118.46-.26-177.69-.07-29.36.9-58.74-2.3-88.02-1.46-13.2-3.25-26.35-7.17-39.08-1.96-6.32-4.53-12.35-9.47-17.1-2.46-2.37-4.77-2.31-7.6-.63,4.26,5.47,6.76,11.65,8.57,18.1,4.66,16.56,7.5,33.49,8.4,50.62,1.02,19.64,1.47,39.31,1.54,58.97.3,70.38.3,140.76.46,211.13.02,11.13.15,22.27.22,33.41h-8.14c-.11-1.33-.33-2.66-.35-4-.08-51.18.08-102.38-.29-153.57-.34-47.38,1.27-94.8-1.31-142.17-.99-17.91-3.43-35.68-8.23-53.02-1.61-5.85-3.79-11.54-7.72-16.59-1.78,1.18-3.35,2.22-4.83,3.22,1.11,2.53,2.17,4.7,3.01,6.96,4.67,12.74,6.54,26.07,8.25,39.43,2.62,20.61,2.86,41.35,2.89,62.09.07,68.94.19,137.85.3,206.77.03,16.97.09,33.94.15,50.9h-8.73c.04-.96.09-1.93.09-2.89-.08-85.41-.26-170.81-.18-256.22.02-28.04-.9-55.98-6.57-83.57-1.29-6.29-3.17-12.48-4.81-18.88-5.73,3.29-5.82,3.54-4.59,8.86,3.88,17.04,6.3,34.31,6.94,51.76.66,17.82.95,35.66,1.01,53.48.22,56.9.26,113.8.38,170.7.04,25.6.12,51.18.18,76.76h-8.73c.04-1.25.12-2.5.11-3.75-.14-89.55-.32-179.09-.43-268.64-.03-22.31-.88-44.56-4.53-66.61-.67-4.13-1.47-8.24-2.29-12.87-1.69,1.53-2.74,2.7-3.98,3.58-1.81,1.31-1.97,2.77-1.71,4.97,1.56,13.65,3.59,27.31,4.06,41.02.82,23.53.73,47.08.77,70.63.14,66.77.16,133.55.24,200.32.01,10.45.12,20.91.2,31.38h-8.73c.04-.48.08-.95.09-1.44-.08-37.99-.18-75.98-.25-113.98-.06-33.73.18-67.46-.15-101.19-.36-35.65.91-71.33-1.66-106.95-.38-5.23-1.08-10.45-1.74-16.6-2.16,2.33-3.54,4.1-5.21,5.53-1.82,1.58-2.07,3.31-1.88,5.61.86,10.91,1.97,21.82,2.13,32.76.41,31.7.49,63.39.59,95.07.14,53.5.2,107.01.32,160.51.03,13.57.14,27.12.21,40.69h-8.73c.04-.96.15-1.92.15-2.88-.08-64.46-.13-128.91-.27-193.37-.08-34.59-.24-69.2-.53-103.79-.06-7.97-.81-15.93-1.3-24.73-2.66,2.96-4.79,5.18-6.72,7.56-.52.64-.67,1.77-.64,2.66.39,13.16,1.16,26.34,1.2,39.51.22,72.9.27,145.78.39,218.66.03,18.81.1,37.61.16,56.4h-8.71c0-.76.05-1.55.05-2.31-.21-95.19-.43-190.39-.65-285.57-.02-6.53,0-13.09-.01-20.42-2.14,2.35-3.62,4.07-5.2,5.72-1.97,2.03-2.83,4.23-2.82,7.2.27,55.46.43,110.9.58,166.34.09,36.36.15,72.69.18,109.04,0,6.67-.19,13.34-.29,20h-8.15c.02-1.24.05-2.5.05-3.77-.08-39.05-.15-78.13-.25-117.19-.14-55.35-.31-110.69-.48-166.04,0-.7-.15-1.39-.29-2.52-2.08,2.29-3.75,4.3-5.61,6.1-1.43,1.39-1.97,2.85-1.96,4.85.17,69.6.28,139.19.39,208.8.03,23.26,0,46.54,0,69.8h-8.14c.05-.96.12-1.92.12-2.9-.1-39.34-.19-78.69-.3-118.04-.13-49.42-.29-98.84-.44-148.25v-3.09c-5.65,3.7-8.1,7.87-8.06,14.73.49,78.5.56,156.99.71,235.49.01,7.36-.1,14.71-.18,22.06h-8.14c-.05-.86-.15-1.73-.15-2.59-.14-77.05-.29-154.11-.44-231.16-.02-7.91,0-15.81-.02-24.19-2.18,1.29-3.83,2.47-5.62,3.29-1.86.85-2.4,2.01-2.39,4.03.14,16.47.14,32.95.17,49.43.11,67.06.2,134.13.31,201.2h-8.15c-.04-12.01-.09-24.02-.13-36.04-.2-63-.39-126-.59-188.99-.02-8.7-.02-17.41-.02-25.76-2.74-1.27-5.13-2.39-7.96-3.72v4.2c.1,26.74.23,53.49.28,80.24.12,56.7.2,113.39.28,170.09h-8.14c-.22-69.97-.45-139.94-.65-209.93-.05-15.22-.05-30.43-.06-45.66v-3.48c1.58.8,2.92,1.27,4.06,2.05,3.19,2.22,6.55,2.15,9.57.19,5.27-3.41,10.9-6.6,15.27-10.98,12.39-12.38,24.53-25.04,36.2-38.12,18-20.19,36-40.37,57.11-57.43,7.96-6.42,16.53-11.89,26.87-13.73,1.36-.24,2.89-.15,4.24.2,3.47.89,6.87,1.99,10.3,3.06,6.1,1.89,9.38,6.65,11.88,12.01Z"/>
      <path class="cls-3" d="M325.48,38.42c-5.5,1.87-10.42,4.66-14.68,8.59-8.52,7.86-15.84,16.76-21.89,26.64-15.02,24.53-26.2,50.5-29.41,79.4-.08.75-.1,1.73-.56,2.2-3.61,3.63-7.34,7.18-11.34,11.03.48-12.17,3.05-23.48,6.12-34.69,7.8-28.63,20.1-55.06,38.93-78.19,5.55-6.83,11.98-12.71,20.25-16.18,2.07-.86,4.26-1.43,6.54-2.17-6.55-3.5-12.59-2.74-18.71.59-10.41,5.63-17.57,14.5-24.14,23.91-12.31,17.67-21.86,36.8-28.51,57.27-6.24,19.22-10.95,38.78-9.96,59.25.03.55-.05,1.25-.37,1.63-4.82,5.75-9.67,11.47-14.53,17.19.66-4.29.86-8.92,2.98-12.37,2-3.21,1.22-6.05,1.26-9.05.17-12.08,1.96-23.94,4.72-35.64,6.99-29.48,18.09-57.22,36.01-81.91,6.07-8.34,12.71-16.19,21.87-21.37,3.3-1.86,6.94-3.13,10.6-4.74-4.34-1.56-8.62-3.06-13.14-.93-3.15,1.47-6.39,2.88-9.24,4.84-9.79,6.69-16.79,16.02-23.14,25.78-15.08,23.19-25.73,48.31-31.88,75.28-3.46,15.14-6.32,30.35-4.02,45.28-1.09,1.58-2.23,2.58-2.57,3.83-2.45,8.97-4.73,17.97-7.09,26.94-.21.83-.4,1.79-.91,2.41-4.19,5.02-8.44,10-13.2,15.6.16-1.41.15-1.97.28-2.51,3.41-12.8,6.76-25.63,10.32-38.4.71-2.5,2.87-4.7,3.21-7.18.38-2.79-.83-5.72-.91-8.6-.3-11.32,1.61-22.39,4.03-33.38,6.42-29.21,17.14-56.69,33.7-81.7,6.82-10.28,14.29-20.14,25.12-26.63,3.71-2.21,7.94-3.61,11.77-5.3-5.42-2.75-11.04-2.73-16.6.38-2.34,1.32-4.75,2.64-6.92,4.22-10.57,7.67-17.99,18.1-24.89,28.9-13.96,21.93-23.44,45.82-29.61,70.99-4.21,17.19-8.32,34.5-4.28,51.94-1.2,1.13-2.24,2.07-3.22,2.98-.08-.54-.16-1.26-.27-2.07h-5.47c-.34-1.04-.86-2.03-.91-3.04-.34-6.84-1.32-13.75-.71-20.51,2.14-23.52,8.61-46,17.68-67.74,7.59-18.23,16.84-35.54,29.49-50.83,7.54-9.1,16.07-16.84,28.09-19.51.07-.01.08-.3.08-.3-6.28-3.43-12.22-2.42-18.18.98-7.71,4.39-13.97,10.38-19.56,17.14-12.85,15.53-22,33.22-29.71,51.69-8.53,20.39-14.1,41.59-16.7,63.55-1,8.39-1.64,16.79.21,25.16.94,4.25,1.01,4.23,5.24,4.02.83-.06,1.66-.01,2.61-.01,0,3.19.05,6.1,0,8.99-.17,9.56.85,19.17-1.78,28.61-.87,3.13-1.09,6.49-1.29,9.76-.09,1.56.04,3.97,1.01,4.6,2.52,1.68,2.04,3.88,2.04,6.11.13,79.69.23,159.37.38,239.06.06,27.73.26,55.45.4,83.17h8.14c-.01-12.12,0-24.24-.02-36.35-.13-80.75-.26-161.5-.37-242.27-.02-13.56-.03-27.15-.04-40.71,0-1.95.4-4.07-3.19-4.32,9.79-4.88,15.38-12.91,21.37-20.4,14.71-18.4,29.4-36.81,45.88-53.66,7.75-7.92,16.09-15.11,25.63-20.86,7.6-4.57,15.65-7.61,24.81-7.89-2-.68-3.98-1.34-6.31-2.1.4-3.78.77-7.6,1.18-11.41,1.95-18.05,2.71-36.13,1.65-54.29-.03-.67.09-1.4-.12-2.02-2.16-6.59,2.02-10.46,6.61-14.94,4.41,28.85,2.16,57.09-1.19,85.32,2.81.79,5.31,1.49,8.02,2.26.21-.67.54-1.26.58-1.86,1.08-17.99,2.42-35.96,3.09-53.97.42-10.84-.07-21.71-3.03-32.3-1.6-5.7-1.58-5.73,4.35-8.44,3.42,4.64,5.23,10.04,5.59,15.6.8,12.07,1.49,24.18,1.22,36.25-.34,15.77-1.65,31.51-2.57,47.71-11.92-4.94-22-.84-31.79,4.53-3.55,1.96-6.89,4.34-10.13,6.78-14.79,11.2-26.85,25.14-38.8,39.15-11.89,13.92-23.38,28.17-35.3,42.08-2.96,3.44-6.86,6.07-10.41,9.15.15.68.7,2.03.7,3.4.13,80.86.19,161.7.32,242.56.05,24.33.27,48.66.4,72.99h8.14c-.17-72.51-.36-145.03-.5-217.54-.06-31.22-.07-62.42-.13-93.65-.01-1.3-.42-2.6-.6-3.65,2.45-1.73,5.27-3.4,7.7-5.52,2.77-2.4,5.37-5.06,7.75-7.85,12.02-14.07,23.82-28.31,35.93-42.3,10.91-12.61,22.1-25,35.37-35.22,11.57-8.92,23.82-16.19,39.61-12.65.11-.78.3-1.52.34-2.26,1-19.84,2.51-39.69,2.84-59.53.25-14.88.75-30.22-10.08-42.69,1.09-.37,2.06-.72,3.41-1.18-3.75-1.68-7.1-2.07-10.7-.85ZM279.34,138.2c-.14,1.19-1.08,2.56-2.06,3.31-2.44,1.85-5.13,3.39-7.75,5.09.03-6.1,8.41-32.34,13.29-40.44-1.12,10.68-2.21,21.37-3.47,32.04ZM300.47,93.72c-.71,11.99-2.1,23.92-2.97,35.9-.23,3.3-1.2,5.19-4.74,5.35-1.29.04-2.58.62-3.99.99.74-7.12,1.61-14.01,2.11-20.94.67-9.17.97-18.38,1.61-27.56.15-2.03.76-4.16,1.69-5.98,1.81-3.57,4-6.96,6.36-10.96,0,8.2.37,15.72-.08,23.2Z"/>
      <path class="cls-3" d="M5.83,110.04c3.65,21.8,13.79,39.33,33.93,49.93,8.59,4.51,17.57,6.53,27.48,2.56v15.93c.01,66-.05,132.01,0,198.01.05,46.72.28,93.43.43,140.16.04,14.35.07,28.69.12,43.03.02,1.26.12,2.51.17,3.77h-8.72c-.05-22.47-.1-44.95-.14-67.45-.13-67.08-.33-134.15-.37-201.23-.03-41.97.16-83.94.24-125.91,0-.9-.1-1.8-.17-2.73-2.75.57-5.18,1.07-7.73,1.58v1.45c-.1,25.09-.31,50.21-.27,75.3.15,93.65.38,187.29.6,280.92.03,12.71.17,25.4.28,38.08h-8.73c.04-.47.11-.95.11-1.44-.09-41.86-.27-83.73-.29-125.6-.05-84.61-.02-169.22-.03-253.83.01-5.23,0-10.45,0-15.64-2.68-1.05-5.16-2.03-7.93-3.11.01,8.34.03,16.47.03,24.58-.07,62.71-.24,125.42-.19,188.12.04,52.92.32,105.85.51,158.77.05,9.39.16,18.78.24,28.18h-8.73c.04-.77.11-1.55.11-2.31-.09-50.99-.24-101.96-.27-152.94-.02-82.57.04-165.16.04-247.72,0-.83-.06-1.92-.56-2.42-2.24-2.19-4.64-4.21-7.39-6.65,0,1.44.02,2.36.01,3.3-.12,47.49-.37,94.98-.34,142.46.08,83.06.34,166.12.5,249.19,0,5.69-.17,11.4-.25,17.09h-8.14c-.08-27.13-.14-54.26-.21-81.41-.16-79.19-.36-158.37-.45-237.57-.05-34.2.18-68.41.19-102.64,0-1.63-.57-3.41-1.34-4.87C2.88,126.15-.9,114.89.19,102.46c.73-8.41,4.14-15.41,11.56-20.15-.81,1.25-1.67,2.45-2.39,3.75-4.21,7.55-4.91,15.71-3.53,23.99Z"/>
      <path class="cls-3" d="M182.28,1.77c-6.78,2.94-12.5,7.36-17.76,12.43-1.18,1.12-2.03,1.34-3.49.55-2.56-1.37-5.18-2.66-7.89-3.68-16.1-6.02-31.96-9.01-46.99,3.06-5.64,4.54-10.85,9.37-12.73,16.48-1.54,5.76-2.99,11.79-2.89,17.67.37,20.97,9.52,38.41,23.32,53.67,3.33,3.69,3.61,4.56,1.2,9.5-.25-.11-.55-.17-.78-.33-.65-.44-1.29-.88-1.88-1.37-15.2-13.11-24.39-29.62-27.48-49.44-1.56-10.01-.85-19.93,3.58-29.28.95-2.01,2.27-3.85,3.74-6.31-4.65,2.89-7.6,6.42-9.52,10.76-4.96,11.18-5.27,22.81-2.45,34.47,4.71,19.35,15.66,34.74,31.14,47.08.94.74,2.04,1.97,2.07,2.99.07,1.72-.7,3.47-1.15,5.48-2.13-1.32-4.04-2.31-5.73-3.58-16.76-12.57-28.02-28.93-32.39-49.44-2.84-13.23-2.61-26.44,5.65-38.25.04-.05-.16-.26-.32-.5-4.13,2.95-7.23,6.72-9.05,11.44-5.41,14.13-4.31,28.31.99,42.03,7.57,19.61,20.79,34.47,40.06,43.85-.28,1.59-.59,3.25-.93,5.08-1.64-.53-2.95-.88-4.21-1.38-1.7-.68-3.42-1.35-5.03-2.23-17.4-9.41-29.13-23.9-36.17-42.05-5.05-13.03-6.11-26.61-1.22-40.09,1.07-2.99,2.89-5.7,4.55-8.87-3.81,2.37-6.57,5.26-8.55,8.88-4.59,8.43-5.24,17.6-4.29,26.86,2.31,22.82,14.36,39.85,32.27,53.26,6.59,4.93,13.98,8.2,22.11,9.75,0,.7.03,1.18,0,1.65-.06.46-.2.92-.35,1.51-6.9.58-13.08-1.51-19.06-4.37-11.19-5.39-19.96-13.73-27.05-23.7-14.29-20.08-19.22-41.43-7.84-64.62-4.97,2.69-7.74,7.44-9.53,12.81-3.7,11.1-2.71,22.21.34,33.22,4.28,15.43,13.72,27.4,25.98,37.28,10.18,8.22,21.49,13.37,35.27,11.83v3.13c-.07,64.76-.24,129.52-.16,194.26.09,68.44.43,136.88.64,205.33.02,4.92-.11,9.86-.19,14.78h8.73c-.03-.49-.07-.97-.07-1.46-.17-38.87-.41-77.76-.47-116.64-.13-74.35-.13-148.7-.19-223.06,0-11.71-.01-23.41-.03-35.22,2.13-.26,3.86-.47,5.25-.65-1.11-3.66-2.39-6.99-3.15-10.46-1.8-8.14-1.17-16.39-.43-24.61,1.89-20.94,6.39-41.33,13.18-61.21,7.4-21.74,16.86-42.48,30.85-60.9,7.19-9.47,15.03-18.29,25.89-23.76,2.69-1.36,5.61-2.26,8.49-3.4-6.05-2.67-8.29-2.67-13.86-.27ZM121.51,90.02c-5.46-5.13-10.68-10.54-16.48-15.23-4.26-3.44-5.02-8.13-6.81-12.55.3-.28.59-.55.9-.84,6.39,5.24,12.79,10.48,19.2,15.72.21.19.41.41.62.61q5.43,5.25,2.57,12.29ZM128.74,71.02c-.81,1.4-1.29,2.99-1.8,4.22-6.55-5.15-12.94-10.3-19.45-15.25-2.3-1.76-4.89-3.13-7.39-4.57-4.26-2.46-4.73-3.42-3.71-9.32,5.6,3.06,11.21,5.65,16.28,9.05,5.29,3.52,10.04,7.84,15.09,11.71,1.57,1.22,2.01,2.35.98,4.15ZM134.61,58.02c-.82,1.17-1.3,2.56-2.06,4.13-10.86-9.76-22.66-17.17-36.48-21.34.24-1.79.46-3.38.78-5.75,5.18,1.75,10.1,3.14,14.8,5.04,8.02,3.28,15.2,8.02,22,13.4,1.74,1.39,2.31,2.56.96,4.52ZM138.99,49.34c-12.18-9.46-25.11-16.9-40.81-18.53.78-4.42.76-4.37,4.57-4.19,15.14.68,27.74,7.52,39.84,16.18-1.19,2.17-2.33,4.25-3.6,6.54ZM146.1,37.32c-13.64-8.96-27.98-15.79-45.02-14.44.46-2.18,1.45-3.36,3.77-3.72,10.37-1.62,20.29,0,29.81,4.12,5.19,2.25,10.2,5.01,15.47,7.63-1.51,2.4-2.68,4.27-4.03,6.42ZM154.04,25.67c-14.91-8.3-30.36-14.1-47.85-9.52-.11-.22-.21-.43-.35-.65,1.08-.83,2.07-1.85,3.27-2.47,6.84-3.48,14.18-3.64,21.54-2.77,9.86,1.16,18.81,4.98,27.77,10.11-1.53,1.85-2.88,3.48-4.39,5.29Z"/>
      <path class="cls-1" d="M327.16,43.11c3.42,4.64,5.23,10.04,5.59,15.6.8,12.07,1.49,24.18,1.22,36.25-.34,15.77-1.65,31.51-2.57,47.71-11.92-4.94-22-.84-31.79,4.53-3.55,1.96-6.89,4.34-10.13,6.78-14.79,11.2-26.85,25.14-38.8,39.15-11.89,13.92-23.38,28.17-35.3,42.08-2.96,3.44-6.86,6.07-10.41,9.15.15.68.7,2.03.7,3.4.13,80.86.19,161.7.32,242.56.05,24.33.27,48.66.4,72.99h-8.14c-.01-12.1,0-24.22-.02-36.33-.13-80.75-.26-161.5-.37-242.27-.02-13.56-.03-27.15-.04-40.71,0-1.95.4-4.07-3.19-4.32,9.79-4.88,15.38-12.91,21.37-20.4,14.71-18.4,29.4-36.81,45.88-53.66,7.75-7.92,16.09-15.11,25.63-20.86,7.6-4.57,15.65-7.61,24.81-7.89-2-.68-3.98-1.34-6.31-2.1.4-3.78.77-7.6,1.18-11.41,1.95-18.05,2.71-36.13,1.65-54.29-.03-.67.09-1.4-.12-2.02-2.16-6.59,2.02-10.46,6.61-14.94,4.41,28.85,2.16,57.09-1.19,85.32,2.81.79,5.31,1.49,8.02,2.26.21-.67.54-1.26.58-1.86,1.08-17.99,2.42-35.96,3.09-53.97.42-10.84-.07-21.71-3.03-32.3-1.6-5.7-1.58-5.73,4.35-8.44Z"/>
      <path class="cls-3" d="M354.8,53.61c3.55,9.94,4.21,20.33,3.97,30.69-.37,15.99-1.33,31.95-2.05,47.92-.26,5.8-.61,11.6-.92,17.52-18.17.27-31,10.86-43.25,22.11-18.52,17.03-34.59,36.32-50.73,55.57-7.58,9.04-15.8,17.54-23.95,26.07-1.85,1.94-4.67,2.93-7.4,4.56.02,22.52.02,45.66.06,68.81.14,63.01.28,126.03.45,189.04.04,15.03.16,30.05.25,45.08,0,.76.12,1.53.18,2.3h-8.73c-.11-31.12-.27-62.22-.31-93.34-.12-71.25-.17-142.51-.26-213.77v-3.65c7.47-3.04,12.48-9.42,17.73-15.45,15.2-17.46,30.08-35.21,45.41-52.55,9.37-10.61,19.44-20.59,31.38-28.41,6.68-4.39,13.68-8.14,21.81-8.96,3.04-.3,6.12-.06,9.53-.06.15-2.12.35-4.78.48-7.42,1.02-19.16,2.34-38.31,2.86-57.49.21-8.05-.88-16.23-2.06-24.26-1.08-7.37-4.26-13.88-11.44-17.95,7.24.13,14.18,5.84,16.97,13.62Z"/>
      <path class="cls-3" d="M213.96,6.72c-3.26,1.24-6.42,2.14-9.32,3.54-10.59,5.14-18.17,13.72-25.23,22.8-14.38,18.52-23.87,39.57-31.31,61.59-7.79,23.06-12.58,46.74-13.06,71.14-.12,6.62.87,13.14,3.87,19.67-2.2.16-4.16.31-6.57.5l.02,20.03c.07,73.27.12,146.55.24,219.84.08,45.36.27,90.72.42,136.09,0,.48.05.97.08,1.45h-8.14c-.24-61.83-.57-123.68-.7-185.52-.14-62.43-.09-124.85-.13-187.27v-4.2c2.24-.19,4.16-.35,6.17-.51-5.73-11.4-4.86-23.45-3.63-35.38,3.5-33.87,12.88-66.06,28.79-96.23,7.76-14.73,16.98-28.52,29.72-39.46,4.13-3.53,9.18-6.03,13.91-8.8,4.98-2.89,9.85-1.1,14.87.73Z"/>
      <path class="cls-2" d="M164.7,184.02h.06s.01.05.02.07l-.09-.07Z"/>
      <path class="cls-3" d="M247.66,15.83c-.31.18-.62.49-.99.59-11.12,3.15-19.3,10.47-26.61,18.93-15.81,18.32-26.12,39.72-34.4,62.21-6.87,18.71-11.76,37.91-13.78,57.78-.81,8.01-1.28,16.05.77,23.99,1.12,4.35,1.13,4.33,5.58,4.14.94-.04,1.88,0,3.04,0v18.4c.07,52.91.11,105.85.21,158.77.11,57.88.31,115.74.47,173.62.03,9.68.02,19.37.03,29.06h-8.14c-.21-35.26-.5-70.52-.55-105.79-.15-87.58-.16-175.18-.22-262.76v-10.77s-8.29,0-8.29,0c-3.7-11.45-2.95-23.15-1.47-34.77,4.32-33.86,15.3-65.52,32.53-94.99,6.53-11.16,14.19-21.55,23.95-30.15,3.24-2.84,7-5.18,10.69-7.46,5.44-3.36,11.2-4.16,17.2-.83Z"/>
      <path class="cls-3" d="M231.98,11.68c-1.67.36-2.91.61-4.13.91-7.37,1.86-13.44,6-18.78,11.17-12.63,12.19-22.04,26.7-29.82,42.33-12.03,24.18-20.41,49.56-24.17,76.37-1.74,12.39-3.19,24.83-.32,37.27.36,1.5.86,2.95,1.4,4.78-2.49.24-4.83.48-7.5.75,0,8.44,0,16.75.02,25.06.09,63.1.16,126.21.28,189.32.11,54.58.28,109.15.42,163.72h-8.73c.08-1.9.22-3.81.23-5.71-.15-59.23-.39-118.46-.46-177.69-.08-63.69.01-127.38.01-191.08v-3.35c2.43-.16,4.59-.31,6.86-.47-5.78-16.51-3.16-32.98-.37-49.27,5.25-30.51,15.54-59.33,31.42-86,7.02-11.78,15.11-22.8,25.82-31.57,2.96-2.42,6.41-4.28,9.66-6.38,5.78-3.69,11.67-3.21,18.14-.16Z"/>
      <path class="cls-3" d="M374.96,156.19c-4.48,1.19-9.16,1.97-13.49,3.66-12.72,4.97-22.77,13.85-32.43,23.15-17.07,16.42-32.2,34.6-47.5,52.64-7.37,8.71-15.38,16.9-23.31,25.13-2.95,3.07-6.54,5.5-11.47,5.64,0,.98-.01,1.9,0,2.82.19,71.93.37,143.88.57,215.81.07,25.12.17,50.21.26,75.32,0,.98.06,1.94.11,2.9h-8.73c-.03-20.45-.05-40.9-.1-61.34-.14-65.43-.31-130.87-.46-196.31-.03-13.58,0-27.15-.08-40.72-.02-2.06.56-2.78,2.65-3.8,4.09-1.99,8.15-4.63,11.23-7.92,8.4-9,16.4-18.34,24.31-27.76,15.37-18.23,30.78-36.44,48.6-52.39,7.61-6.79,15.78-12.84,25.37-16.68,7.63-3.05,15.35-3.94,23.19-.75.5.21.99.45,1.3.58Z"/>
      <path class="cls-3" d="M395.89,162.69c-3.19.63-5.83,1-8.39,1.71-11.14,3.1-20.08,9.94-28.52,17.41-17.34,15.32-32.26,32.92-47.34,50.37-10.44,12.08-21.4,23.75-32.33,35.4-2.55,2.7-5.8,4.86-9.06,6.72-1.87,1.08-4.41,1.02-6.64,1.47-.19-.27-.38-.55-.57-.83v5.37c.29,93.82.59,187.66.88,281.5,0,.49.04.96.06,1.45l-8.73.02c.02-9.4.09-18.8.05-28.2-.18-70.56-.4-141.13-.59-211.7-.04-16.68-.03-33.35-.03-50.03,0-.84.07-1.7.13-2.71,5.43.69,9.43-2.02,12.78-5.41,7.76-7.85,15.55-15.7,22.74-24.06,17-19.78,33.47-39.99,52.46-57.92,7.98-7.54,16.32-14.67,26.4-19.26,3.41-1.56,7.09-2.57,10.71-3.6,5.41-1.55,10.44.12,15.97,2.31Z"/>
      <path class="cls-3" d="M438.5,175.87c-2.08.52-3.88.89-5.64,1.42-11.35,3.38-20.52,10.34-29.23,17.96-20.28,17.7-37.99,37.87-55.55,58.18-10.72,12.39-21.38,24.83-34.51,34.84-.7.53-1.37,1.06-2.09,1.55-6.69,4.6-8.15,4.78-15.75,1.85,0,7.43,0,14.75.01,22.05.25,71.84.51,143.66.74,215.49.04,11.33.05,22.69.08,34.02h-8.72c.05-7.53.19-15.08.17-22.64-.13-65.24-.29-130.48-.41-195.72-.04-17.64-.04-35.28-.06-52.92v-4.69c6.85,4,11.47-.11,16.06-3.58,11.45-8.64,20.67-19.54,30.23-30.1,14.96-16.5,29.79-33.14,45.06-49.34,8.78-9.32,18.42-17.81,29.54-24.32,3.41-1.99,7.11-3.5,10.74-5.12,6.45-2.87,12.77-2.18,19.33,1.07Z"/>
      <path class="cls-3" d="M461.16,182.73c-19.21,2.7-31.76,15.2-44.58,27.26-16.42,15.42-31.05,32.49-45.89,49.38-11.63,13.27-23.51,26.32-37.45,37.27-.68.53-1.42,1.01-2.12,1.53-5.72,4.28-11.54,7.7-18.89,1.23v4.14c.11,45.85.23,91.69.33,137.55.08,39.65.17,79.29.25,118.94,0,1.05.03,2.13.05,3.19h-8.14c-.12-12-.33-24.01-.36-36.03-.17-69.9-.31-139.79-.47-209.68l-.02-21.36c.7.12,1.12.07,1.39.26,4.74,3.28,9.2,1.9,13.52-.88,10.27-6.63,18.8-15.23,26.93-24.23,15.31-16.98,30.34-34.23,45.84-51.03,10.32-11.18,21.06-22.05,33.78-30.53,5.49-3.66,11.72-6.28,17.79-8.99,6.04-2.7,11.82-.58,18.05,1.99Z"/>
      <path class="cls-3" d="M417.49,169.34c-4.08,1.23-8.18,2.16-12.04,3.66-10.1,3.91-18.38,10.65-26.36,17.73-17.28,15.36-32.47,32.72-47.62,50.14-10.16,11.69-21,22.79-31.74,33.97-2.79,2.89-6.28,5.14-9.6,7.48-3.16,2.22-6.57,3.36-10.66.59,0,1.66,0,2.85,0,4.06.24,91.7.47,183.4.72,275.11-.01.39.05.78.07,1.16h-8.71c.02-10.65.09-21.3.07-31.96-.11-83.17-.24-166.34-.36-249.53v-2.87c4.26,2.24,7.87.9,10.79-1.62,6.45-5.55,13.04-11.05,18.72-17.34,13.85-15.3,27.03-31.2,40.84-46.52,11.74-13.04,24.1-25.49,38.33-35.91,5.97-4.37,12.38-7.86,19.55-10.01,6.33-1.9,12.16-.74,18.01,1.86Z"/>
      <path class="cls-3" d="M53.32,123.71c8.74,10.72,18.86,19.57,32.42,23.48,4.4,1.28,9.07,1.51,14.01,2.28v8.56c.04,96.45.04,192.9.13,289.36.04,38.1.32,76.19.5,114.28,0,.59.1,1.16.16,1.73h-8.73c.06-6.77.19-13.54.17-20.32-.18-58.07-.48-116.13-.53-174.2-.05-71.14.08-142.3.14-213.45,0-1.22.14-2.45.22-3.6-19.79-.06-33.85-10.99-45.26-26-11.09-14.6-15.69-31.19-12.62-49.51,1.15-6.9,3.55-13.33,9.96-17.3.31-.2.64-.34,1.66-.88-6.93,9.62-7.89,19.94-6.95,30.48,1.2,13.19,6.39,24.83,14.74,35.09Z"/>
      <path class="cls-3" d="M34.1,66.41c-1.17,2.02-2.52,3.99-3.47,6.1-4.22,9.43-4.32,19.33-2.06,29.08,5.45,23.44,18.78,40.77,41.34,50.05,4.71,1.94,10.09,2.24,14.63,3.17-.2.77-.87,2.16-.89,3.54-.08,66.39-.2,132.79-.11,199.18.09,67.75.41,135.52.63,203.27,0,.86.05,1.74.07,2.61h-8.72c.01-15.5.05-31.01.02-46.51-.12-85.68-.3-171.36-.4-257.06-.04-31.88.09-63.76.09-95.65,0-3.21-.43-6.4,4.15-6.92-12.14.33-22.33-4.18-31.31-11.45-17.28-14.03-26.39-32.12-25.72-54.64.22-7.05,1.62-13.91,5.9-19.76,1.5-2.04,3.54-3.67,5.31-5.48.18.16.35.31.54.47Z"/>
      <path class="cls-1" d="M25.97,158.08c.49.5.56,1.59.56,2.42,0,82.56-.07,165.15-.04,247.72.03,50.98.18,101.95.27,152.94,0,.76-.07,1.54-.11,2.31h-8.14c.07-5.69.25-11.39.25-17.08-.16-83.07-.42-166.12-.5-249.19-.03-47.48.22-94.97.34-142.46,0-.94,0-1.86-.01-3.3,2.74,2.44,5.15,4.45,7.39,6.65Z"/>
      <path class="cls-1" d="M42.72,166.93c0,5.2.01,10.41,0,15.64.02,84.61-.02,169.23.03,253.83.02,41.87.2,83.74.29,125.6,0,.49-.07.97-.11,1.45h-7.56c-.08-9.4-.2-18.78-.24-28.18-.19-52.92-.46-105.85-.51-158.77-.05-62.7.12-125.41.19-188.12,0-8.11-.01-16.24-.03-24.58,2.77,1.08,5.25,2.07,7.93,3.11Z"/>
      <path class="cls-1" d="M58.79,166.11c.07.93.17,1.83.17,2.73-.08,41.97-.27,83.94-.24,125.91.05,67.08.24,134.15.37,201.23.04,22.5.08,44.98.14,67.46h-7.56c-.11-12.68-.25-25.37-.28-38.08-.22-93.63-.44-187.27-.6-280.92-.03-25.09.17-50.21.27-75.3v-1.45c2.55-.52,4.98-1.02,7.73-1.58Z"/>
      <path class="cls-2" d="M164.7,184.02l.09.07h-.07s-.01-.05-.01-.07Z"/>
      <path class="cls-3" d="M164.71,184.1c.13.72.38,1.44.38,2.16-.02,18.79-.14,37.6-.1,56.39.13,81.03.3,162.06.48,243.06.05,25.89.14,51.77.2,77.63h-8.15c-.12-14.91-.33-29.83-.37-44.75-.15-66.96-.29-133.92-.39-200.89-.07-43.02-.06-86.05-.06-129.07,0-4.25-.66-3.98,4.01-4.28,1.32-.08,2.65-.17,3.98-.26Z"/>
      <path class="cls-1" d="M173.05,184.01v10.77c.07,87.58.08,175.18.22,262.76.05,35.27.35,70.53.55,105.8h-8.15c-.06-25.86-.15-51.74-.2-77.62-.17-81.01-.35-162.03-.48-243.06-.04-18.79.08-37.6.1-56.39,0-.72-.25-1.44-.38-2.16h.07s-.01-.05-.02-.08h8.29Z"/>
      <path class="cls-2" d="M164.7,184.02h.06s.01.05.02.07h-.07s-.01-.05-.01-.07Z"/>
      <path class="cls-1" d="M490.47,208.55c3.93,12.73,5.72,25.88,7.17,39.08,3.2,29.28,2.23,58.67,2.3,88.02.15,59.23.18,118.46.26,177.69.02,16.56-.03,33.14-.04,49.71h-7.57c-.07-11.13-.2-22.28-.22-33.41-.16-70.37-.16-140.75-.46-211.13-.07-19.66-.53-39.33-1.54-58.97-.89-17.13-3.73-34.07-8.4-50.62-1.81-6.45-4.31-12.63-8.57-18.1,2.83-1.68,5.14-1.75,7.6.63,4.94,4.75,7.51,10.79,9.47,17.1Z"/>
      <path class="cls-1" d="M466.55,193.71c3.93,5.05,6.11,10.75,7.72,16.59,4.8,17.35,7.24,35.12,8.23,53.02,2.58,47.37.97,94.79,1.31,142.17.37,51.19.21,102.38.29,153.57.02,1.34.24,2.67.35,4.01h-8.14c-.05-16.95-.12-33.91-.15-50.89-.11-68.92-.23-137.83-.3-206.77-.03-20.74-.27-41.48-2.89-62.09-1.71-13.36-3.58-26.69-8.25-39.43-.83-2.26-1.9-4.43-3.01-6.96,1.49-1,3.06-2.04,4.83-3.22Z"/>
      <path class="cls-1" d="M456.09,201.52c1.65,6.41,3.52,12.6,4.81,18.88,5.68,27.59,6.59,55.53,6.57,83.57-.08,85.41.1,170.81.18,256.22,0,.96-.05,1.93-.09,2.9h-7.55c-.06-25.58-.13-51.17-.18-76.76-.12-56.9-.16-113.8-.38-170.7-.07-17.82-.36-35.65-1.01-53.48-.64-17.45-3.07-34.72-6.94-51.76-1.23-5.33-1.14-5.57,4.59-8.86Z"/>
      <path class="cls-1" d="M444.15,211.22c.82,4.63,1.62,8.74,2.29,12.87,3.66,22.05,4.5,44.29,4.53,66.61.1,89.55.28,179.09.43,268.64,0,1.25-.07,2.5-.11,3.76h-7.55c-.08-10.45-.19-20.91-.2-31.36-.08-66.76-.1-133.54-.24-200.32-.04-23.55.05-47.1-.77-70.63-.47-13.71-2.51-27.37-4.06-41.02-.26-2.21-.1-3.66,1.71-4.97,1.24-.88,2.29-2.04,3.98-3.58Z"/>
      <path class="cls-1" d="M431.3,222.94c.66,6.15,1.35,11.37,1.74,16.6,2.58,35.62,1.3,71.3,1.66,106.95.32,33.73.09,67.46.15,101.19.06,38,.16,75.99.25,113.98,0,.49-.05.97-.09,1.45h-7.56c-.07-13.57-.18-27.12-.21-40.69-.11-53.5-.17-107.01-.32-160.51-.09-31.68-.17-63.37-.59-95.07-.15-10.94-1.26-21.85-2.13-32.76-.19-2.31.06-4.04,1.88-5.61,1.67-1.43,3.06-3.21,5.21-5.53Z"/>
      <path class="cls-1" d="M416.77,238.35c.49,8.8,1.24,16.76,1.3,24.73.3,34.6.46,69.2.53,103.79.14,64.46.18,128.91.27,193.37,0,.96-.11,1.93-.15,2.89h-7.57c-.05-18.78-.13-37.58-.16-56.39-.12-72.89-.17-145.76-.39-218.66-.04-13.17-.81-26.34-1.2-39.51-.03-.89.12-2.02.64-2.66,1.93-2.38,4.06-4.6,6.72-7.56Z"/>
      <path class="cls-1" d="M401.84,254.84c0,7.33,0,13.89.01,20.42.22,95.19.43,190.38.65,285.57,0,.76-.05,1.55-.05,2.31h-8.15c.1-6.66.29-13.33.29-20-.03-36.35-.09-72.68-.18-109.04-.15-55.45-.31-110.88-.58-166.34-.01-2.97.85-5.17,2.82-7.2,1.58-1.65,3.06-3.37,5.2-5.72Z"/>
      <path class="cls-1" d="M385.18,273.62c.13,1.12.28,1.82.29,2.52.17,55.35.34,110.69.48,166.04.09,39.07.17,78.14.25,117.19,0,1.27-.03,2.53-.05,3.78l-8.15.02c0-23.26.04-46.54,0-69.8-.1-69.6-.22-139.2-.39-208.8-.02-2,.52-3.46,1.96-4.85,1.86-1.8,3.53-3.81,5.61-6.1Z"/>
      <path class="cls-1" d="M369.23,290.9v3.09c.15,49.42.31,98.84.45,148.25.11,39.35.21,78.7.3,118.04,0,.98-.07,1.94-.12,2.9h-8.15c.08-7.35.2-14.7.18-22.06-.15-78.49-.22-156.99-.71-235.49-.04-6.86,2.41-11.03,8.05-14.73Z"/>
      <path class="cls-1" d="M352.95,305.24c.01,8.38,0,16.28.02,24.19.14,77.05.29,154.11.44,231.16,0,.86.11,1.73.15,2.6h-8.14c-.11-67.07-.2-134.13-.31-201.2-.03-16.49-.04-32.96-.17-49.43-.02-2.02.53-3.18,2.39-4.03,1.8-.82,3.44-2,5.62-3.29Z"/>
      <path class="cls-1" d="M336.54,312.4c0,8.36,0,17.07.02,25.76.2,63,.39,126,.59,188.99.04,12.02.09,24.03.13,36.04h-8.14c-.09-56.69-.17-113.38-.28-170.08-.04-26.75-.18-53.5-.27-80.24v-4.2c2.82,1.33,5.22,2.45,7.96,3.72Z"/>
      <path class="cls-1" d="M300.55,70.53c0,8.2.37,15.72-.08,23.2-.71,11.99-2.1,23.92-2.97,35.9-.23,3.3-1.2,5.19-4.74,5.35-1.29.04-2.58.62-3.99.99.74-7.12,1.61-14.01,2.11-20.94.67-9.17.97-18.38,1.61-27.56.15-2.03.76-4.16,1.69-5.98,1.81-3.57,4-6.96,6.36-10.96Z"/>
      <path class="cls-1" d="M282.82,106.16c-1.12,10.68-2.21,21.37-3.47,32.04-.14,1.19-1.08,2.56-2.06,3.31-2.44,1.85-5.13,3.39-7.75,5.09.03-6.1,8.41-32.34,13.29-40.44Z"/>
      <path class="cls-1" d="M142.6,42.81c-1.19,2.17-2.33,4.25-3.6,6.54-12.18-9.46-25.11-16.9-40.81-18.53.78-4.42.76-4.37,4.57-4.19,15.14.68,27.74,7.52,39.84,16.18Z"/>
      <path class="cls-1" d="M134.61,58.02c-.82,1.17-1.3,2.56-2.06,4.13-10.86-9.76-22.66-17.17-36.48-21.34.24-1.79.46-3.38.78-5.75,5.18,1.75,10.1,3.14,14.8,5.04,8.02,3.28,15.2,8.02,22,13.4,1.74,1.39,2.31,2.56.96,4.52Z"/>
      <path class="cls-1" d="M150.14,30.9c-1.51,2.4-2.68,4.27-4.03,6.42-13.64-8.96-27.98-15.79-45.02-14.44.46-2.18,1.45-3.36,3.77-3.72,10.37-1.62,20.29,0,29.81,4.12,5.19,2.25,10.2,5.01,15.47,7.63Z"/>
      <path class="cls-1" d="M158.43,20.38c-1.53,1.85-2.88,3.48-4.39,5.29-14.91-8.3-30.36-14.1-47.85-9.52-.11-.22-.21-.43-.35-.65,1.08-.83,2.07-1.85,3.27-2.47,6.84-3.48,14.18-3.64,21.54-2.77,9.86,1.16,18.81,4.98,27.77,10.11Z"/>
      <path class="cls-1" d="M128.74,71.02c-.81,1.4-1.29,2.99-1.8,4.22-6.55-5.15-12.94-10.3-19.45-15.25-2.3-1.76-4.89-3.13-7.39-4.57-4.26-2.46-4.73-3.42-3.71-9.32,5.6,3.06,11.21,5.65,16.28,9.05,5.29,3.52,10.04,7.84,15.09,11.71,1.57,1.22,2.01,2.35.98,4.15Z"/>
      <path class="cls-1" d="M121.51,90.02c-5.46-5.13-10.68-10.54-16.48-15.23-4.26-3.44-5.02-8.13-6.81-12.55.3-.28.59-.55.9-.84,6.39,5.24,12.79,10.48,19.2,15.72.21.19.41.41.62.61q5.43,5.25,2.57,12.29Z"/>
    </g>
  </g>
</svg>